<mxfile host="Electron" modified="2023-09-15T21:26:57.394Z" agent="Mozilla/5.0 (Windows NT 10.0; Win64; x64) AppleWebKit/537.36 (KHTML, like Gecko) draw.io/21.6.5 Chrome/114.0.5735.243 Electron/25.3.1 Safari/537.36" etag="YjUz01RrqJF-Y_iyOrrC" version="21.6.5" type="device">
  <diagram id="szs79xgOVXDPXgL9OrpX" name="Página-1">
    <mxGraphModel dx="1418" dy="820" grid="1" gridSize="10" guides="1" tooltips="1" connect="1" arrows="1" fold="1" page="1" pageScale="1" pageWidth="1150" pageHeight="700" math="0" shadow="0">
      <root>
        <mxCell id="0" />
        <mxCell id="1" parent="0" />
        <mxCell id="DPbp3sRypC6EYG-zwKEf-8" style="edgeStyle=orthogonalEdgeStyle;rounded=0;orthogonalLoop=1;jettySize=auto;html=1;exitX=1;exitY=0.3333333333333333;exitDx=0;exitDy=0;exitPerimeter=0;entryX=0;entryY=0.5;entryDx=0;entryDy=0;" parent="1" source="eY7FYX1GC45UXE04t5yQ-4" target="DPbp3sRypC6EYG-zwKEf-5" edge="1">
          <mxGeometry relative="1" as="geometry">
            <mxPoint x="125" y="145" as="sourcePoint" />
          </mxGeometry>
        </mxCell>
        <mxCell id="DPbp3sRypC6EYG-zwKEf-11" style="edgeStyle=orthogonalEdgeStyle;rounded=0;orthogonalLoop=1;jettySize=auto;html=1;exitX=1;exitY=0.3333333333333333;exitDx=0;exitDy=0;exitPerimeter=0;entryX=0;entryY=0.5;entryDx=0;entryDy=0;" parent="1" source="eY7FYX1GC45UXE04t5yQ-4" target="NUaUHLJXbepJ66ujS02r-18" edge="1">
          <mxGeometry relative="1" as="geometry">
            <mxPoint x="125" y="145" as="sourcePoint" />
          </mxGeometry>
        </mxCell>
        <mxCell id="Q_k_FdXEpbmu3CS_4IuE-2" style="edgeStyle=orthogonalEdgeStyle;rounded=0;orthogonalLoop=1;jettySize=auto;html=1;exitX=1;exitY=0.3333333333333333;exitDx=0;exitDy=0;exitPerimeter=0;entryX=0;entryY=0.5;entryDx=0;entryDy=0;" parent="1" source="eY7FYX1GC45UXE04t5yQ-4" target="Q_k_FdXEpbmu3CS_4IuE-1" edge="1">
          <mxGeometry relative="1" as="geometry">
            <mxPoint x="125" y="145" as="sourcePoint" />
          </mxGeometry>
        </mxCell>
        <mxCell id="yU0lEmC6n2iB3_ynG8TF-2" style="edgeStyle=orthogonalEdgeStyle;rounded=0;orthogonalLoop=1;jettySize=auto;html=1;exitX=1;exitY=0.3333333333333333;exitDx=0;exitDy=0;exitPerimeter=0;entryX=0;entryY=0.5;entryDx=0;entryDy=0;" parent="1" source="eY7FYX1GC45UXE04t5yQ-4" target="yU0lEmC6n2iB3_ynG8TF-1" edge="1">
          <mxGeometry relative="1" as="geometry">
            <mxPoint x="125" y="145" as="sourcePoint" />
          </mxGeometry>
        </mxCell>
        <mxCell id="NUaUHLJXbepJ66ujS02r-15" value="CU-5: Administrar centro" style="shape=umlFrame;whiteSpace=wrap;html=1;width=270;height=20;fontStyle=1" parent="1" vertex="1">
          <mxGeometry x="280" y="20" width="320" height="460" as="geometry" />
        </mxCell>
        <mxCell id="NUaUHLJXbepJ66ujS02r-18" value="&lt;b&gt;CU-5.1: &lt;br&gt;&lt;/b&gt;Editar información centro" style="ellipse;whiteSpace=wrap;html=1;verticalAlign=top;" parent="1" vertex="1">
          <mxGeometry x="360" y="60" width="140" height="70" as="geometry" />
        </mxCell>
        <mxCell id="DPbp3sRypC6EYG-zwKEf-5" value="&lt;b&gt;CU-5.2: &lt;br&gt;&lt;/b&gt;Gestionar juntas" style="ellipse;whiteSpace=wrap;html=1;verticalAlign=top;" parent="1" vertex="1">
          <mxGeometry x="360" y="160" width="140" height="70" as="geometry" />
        </mxCell>
        <mxCell id="Q_k_FdXEpbmu3CS_4IuE-1" value="&lt;b&gt;CU-5.3: &lt;br&gt;&lt;/b&gt;Gestionar miembros de gobierno" style="ellipse;whiteSpace=wrap;html=1;verticalAlign=top;" parent="1" vertex="1">
          <mxGeometry x="360" y="260" width="140" height="70" as="geometry" />
        </mxCell>
        <mxCell id="yU0lEmC6n2iB3_ynG8TF-1" value="&lt;b&gt;CU-5.4: &lt;br&gt;&lt;/b&gt;Consultar la ayuda del responsable centro" style="ellipse;whiteSpace=wrap;html=1;verticalAlign=top;" parent="1" vertex="1">
          <mxGeometry x="360" y="370" width="140" height="70" as="geometry" />
        </mxCell>
        <mxCell id="eY7FYX1GC45UXE04t5yQ-3" value="" style="edgeStyle=orthogonalEdgeStyle;rounded=0;orthogonalLoop=1;jettySize=auto;html=1;" edge="1" parent="1" source="eY7FYX1GC45UXE04t5yQ-7" target="eY7FYX1GC45UXE04t5yQ-4">
          <mxGeometry relative="1" as="geometry" />
        </mxCell>
        <mxCell id="eY7FYX1GC45UXE04t5yQ-4" value="&lt;span style=&quot;background-color: rgb(255 , 255 , 255)&quot;&gt;Responsable Centro&lt;/span&gt;" style="shape=umlActor;verticalLabelPosition=bottom;verticalAlign=top;html=1;outlineConnect=0;" vertex="1" parent="1">
          <mxGeometry x="130" y="250" width="30" height="60" as="geometry" />
        </mxCell>
        <mxCell id="eY7FYX1GC45UXE04t5yQ-7" value="&lt;span style=&quot;background-color: rgb(255 , 255 , 255)&quot;&gt;Administrador&lt;/span&gt;" style="shape=umlActor;verticalLabelPosition=bottom;verticalAlign=top;html=1;outlineConnect=0;" vertex="1" parent="1">
          <mxGeometry x="130" y="150" width="30" height="60" as="geometry" />
        </mxCell>
      </root>
    </mxGraphModel>
  </diagram>
</mxfile>
